<?xml version="1.0" encoding="utf-8"?>
<!-- Generator: Adobe Illustrator 24.1.0, SVG Export Plug-In . SVG Version: 6.00 Build 0)  -->
<svg version="1.1" id="Layer_1" xmlns="http://www.w3.org/2000/svg" xmlns:xlink="http://www.w3.org/1999/xlink" x="0px" y="0px"
	 viewBox="0 0 1280 59" style="enable-background:new 0 0 1280 59;" xml:space="preserve">
<style type="text/css">
	.st0{fill:#1B1B1E;}
	.st1{fill:#93061a;}
</style>
<rect x="-56" y="-78" class="st0" width="1437" height="216"/>
<g>
	<path class="st1" d="M75,46.5L64.3,43l-1,3.2c-0.1,0.3-0.3,0.5-0.5,0.6c-0.2,0.1-0.5,0.1-0.8,0.1l-5.7-1.9c-3.1-1-5.6-3.2-7.1-6.1
		c-1.2-2.3-1.6-5-1.2-7.5c-2.6,0.7-7.5,1-12.3-3.9c-0.9-0.9-1.6-2-2.2-2.9c-0.9-1.4-2.8-3.8-5.4-4.3c-1.6-0.3-3.3,0.2-5,1.4
		c-0.4,0.3-1.1,0.2-1.4-0.2c0,0,0,0,0,0c0,0-0.1-0.1-0.1-0.1c-0.2-0.4-0.1-1,0.3-1.3c2.2-1.6,4.4-2.2,6.6-1.8
		c3.3,0.6,5.6,3.5,6.7,5.1c0.5,0.8,1.2,1.8,2,2.6c5.2,5.3,10.2,3.6,11.4,3c1.1-2.9,3.2-5.3,6-6.7c2.9-1.5,6.3-1.7,9.4-0.7l5.7,1.9
		c0.5,0.2,0.8,0.8,0.6,1.3l-1,3.2l10.7,3.5c0.5,0.2,0.8,0.7,0.6,1.3s-0.7,0.8-1.3,0.6l-10.7-3.5l-3.7,11.3l10.7,3.5
		c0.5,0.2,0.8,0.7,0.6,1.3C76,46.4,75.5,46.7,75,46.5z"/>
	<path class="st1" d="M0.8,11.6l-1-2C2.5,9.6,6,10.4,9.5,14c0.9,0.9,1.6,2,2.2,2.9c0.9,1.4,2.8,3.8,5.4,4.3c1.6,0.3,3.3-0.2,5-1.4
		c0.4-0.3,1.1-0.2,1.4,0.2c0,0,0,0,0,0c0,0,0.1,0.1,0.1,0.1c0.2,0.4,0.1,1-0.3,1.3c-2.2,1.6-4.4,2.1-6.6,1.7
		c-3.3-0.6-5.6-3.5-6.7-5.2c-0.5-0.8-1.2-1.8-2-2.6C5.5,12.7,2.9,11.8,0.8,11.6z"/>
</g>
</svg>
