<?xml version="1.0" encoding="utf-8"?>
<!-- Generator: Adobe Illustrator 24.1.0, SVG Export Plug-In . SVG Version: 6.00 Build 0)  -->
<svg version="1.1" id="Layer_1" xmlns="http://www.w3.org/2000/svg" xmlns:xlink="http://www.w3.org/1999/xlink" x="0px" y="0px"
	 viewBox="0 0 54.9 65.1" style="enable-background:new 0 0 54.9 65.1;" xml:space="preserve">
<style type="text/css">
	.st0{fill:#FFFFFF;}
	.st1{fill:#28ADC7;}
	.st2{fill:#93061A;}
	.st3{fill:url(#SVGID_1_);}
</style>
<g id="Layer_1_1_">
	<rect x="10.7" y="2.7" class="st0" width="39.8" height="60.4"/>
	<path class="st1" d="M5.1,1.7v3.4c1.9,0,3.5,1,3.5,2.2V12c0-1.2-1.6-2.2-3.5-2.2v7c1.9,0,3.5,1,3.5,2.2v4.8c0-1.2-1.6-2.2-3.5-2.2
		v7c1.9,0,3.5,1,3.5,2.2v4.8c0-1.2-1.6-2.2-3.5-2.2v7c1.9,0,3.5,1,3.5,2.2v4.8c0-1.2-1.6-2.2-3.5-2.2v7c1.9,0,3.5,1,3.5,2.2v4.8
		C8.6,58,7,57,5.1,57v6.8h31.1l10.2-10.2V1.7H5.1z M40.3,27.6h-26V9.1h26.1C40.3,9.1,40.3,27.6,40.3,27.6z"/>
	<path d="M14.3,28.6h26.1c0.5,0,1-0.5,1-1V9.1c0-0.6-0.5-1-1-1H14.3c-0.5,0-1,0.4-1,1v18.5C13.3,28.1,13.7,28.6,14.3,28.6z
		 M15.3,10.1h24.1v16.5H15.3V10.1z"/>
	<path d="M4.1,62.2v1.5c0,0.5,0.4,1,1,1h47.5c0.5,0,1-0.5,1-1v-62c0-0.5-0.5-1-1-1H5.1c-0.6,0-1,0.5-1,1v2.4c-2,0.3-3.5,1.6-3.5,3.1
		V12c0,1.5,1.5,2.8,3.5,3.1v0.8c-2,0.3-3.5,1.6-3.5,3.1v4.8c0,1.5,1.5,2.8,3.5,3.1v0.8c-2,0.3-3.5,1.6-3.5,3.1v4.8
		c0,1.5,1.5,2.8,3.5,3.1v0.8c-2,0.3-3.5,1.6-3.5,3.1v4.8c0,1.5,1.5,2.8,3.5,3.1v0.8c-2,0.3-3.5,1.6-3.5,3.1v4.8
		C0.6,60.6,2.1,61.9,4.1,62.2z M45.5,55.9v6.8h-6.8L45.5,55.9z M6.1,2.7h39.3v49.8h-9.2c-0.5,0-1,0.5-1,1v9.2H6.1V58
		c0.4,0.1,1,0.3,1.4,0.7l0,0c0.1,0.1,0.1,0.2,0.1,0.3l0,0v0.1c0,0.5,0.4,1,1,1s1-0.5,1-1c0-5.2,0-4.9-0.1-5.2
		C9.4,53,8.9,52.4,8.2,52c-0.6-0.4-1.3-0.7-2.1-0.8v-5c0.5,0.1,1.2,0.4,1.4,0.8l0,0c0,0,0,0.1,0.1,0.1l0,0v0.1c0,0.5,0.4,1,1,1
		s1-0.5,1-1c0-3.9,0-4.8,0-4.9c0-0.4-0.1-0.8-0.4-1.1c-0.6-1.1-1.9-1.7-3.2-1.8v-5c0.3,0.1,0.7,0.2,1,0.4c0.2,0.1,0.4,0.3,0.5,0.6
		l0,0v0.1c0,0.5,0.4,1,1,1s1-0.5,1-1c0-5.1,0-5-0.1-5.4c0-0.6-0.4-1.1-0.9-1.5c-0.7-0.5-1.5-0.8-2.4-1v-4.9c0.1,0,0.1,0,0.1,0l0,0
		c0.4,0.1,0.8,0.3,1,0.5c0.2,0.1,0.4,0.4,0.4,0.6c0,0.5,0.4,1,1,1s1-0.5,1-1c0-5.2,0-4.9-0.1-5.2c-0.1-0.7-0.6-1.3-1.2-1.7
		C7.7,16.4,6.8,16.1,6,16v-5c0.5,0.1,1,0.3,1.3,0.7c0.1,0.1,0.2,0.3,0.2,0.4c0,0.6,0.4,1,1,1s1-0.4,1-1c0-3.9,0-4.8,0-4.9
		c0.1-0.8-0.3-1.4-0.8-1.9C8,4.7,7.1,4.3,6.1,4.2V2.7L6.1,2.7z M2.6,7.2c0-0.5,1-1.2,2.5-1.2s2.5,0.7,2.5,1.2v2.1
		c-1.5-0.7-3.5-0.7-5,0C2.6,9.4,2.6,7.2,2.6,7.2z M2.6,19c0-0.5,1-1.2,2.5-1.2s2.5,0.7,2.5,1.2v2.1c-1.6-0.7-3.6-0.7-5,0V19z
		 M2.6,30.8c0-0.5,1-1.2,2.5-1.2c1,0,2.5,0.5,2.5,1.2v2.1c-1.5-0.7-3.5-0.7-5,0C2.6,32.9,2.6,30.8,2.6,30.8z M5.1,41.4
		c1.5,0,2.5,0.7,2.5,1.2v2.1c-1.5-0.7-3.5-0.7-5,0v-2.1C2.6,42.1,3.6,41.4,5.1,41.4z M5.1,53.1c1.5,0,2.5,0.7,2.5,1.2v2.1
		c-1.5-0.7-3.5-0.7-5,0v-2.1C2.6,53.8,3.6,53.1,5.1,53.1z"/>
</g>
<rect x="50.5" y="-15.6" class="st0" width="0" height="0.3"/>
<g>
	<g id="Layer_1_2_">
		<path d="M20,24.5c0,0-0.1,0-0.2,0c-0.1,0-0.2,0-0.2,0c-0.1,0-0.2,0-0.2,0c-0.1,0-0.2,0-0.2-0.1c0,0,0-0.1,0-0.1c0,0,0-0.1,0-0.1
			c0,0,0,0,0,0v-0.5c0,0,0-0.1,0-0.1c0-0.1,0-0.1,0-0.1c0,0,0,0,0.1,0c0.2,0,0.4,0,0.7,0c0,0,0,0,0,0c0,0,0,0,0,0c0,0,0-0.1,0-0.2
			c0-0.1,0-0.2,0-0.2c0,0,0,0-0.1,0c-0.1,0-0.2,0-0.3,0c-0.1,0-0.2,0-0.3,0s-0.2,0-0.3,0c-0.1,0-0.2,0-0.3,0c0,0,0,0,0,0v0
			c0,0.1,0,0.3,0,0.3c0,0.3,0,0.5,0,0.6c0,0.1,0,0.3,0,0.5c0,0.2,0,0.4,0,0.5c0,0,0,0,0,0c0.1,0,0.2,0,0.3,0c0.1,0,0.3,0,0.3,0
			c0.3,0,0.5,0,0.6,0c0,0,0,0,0,0c0,0,0,0,0,0c0,0,0-0.1,0-0.2C20,24.7,20.1,24.6,20,24.5C20,24.5,20,24.5,20,24.5z"/>
		<path d="M22.4,25C22.4,25,22.4,25,22.4,25l-0.6,0c0,0,0,0,0,0c0-0.1,0-0.2,0-0.4c0-0.2,0-0.3,0-0.4c0,0,0,0,0,0
			c0,0-0.1,0.1-0.2,0.4c-0.1,0.2-0.1,0.3-0.2,0.5c0,0,0,0,0,0c0,0,0,0-0.1,0c0,0-0.1,0-0.1,0c0-0.1-0.1-0.3-0.2-0.5
			c-0.1-0.2-0.2-0.4-0.2-0.5c0,0,0,0,0,0c0,0,0,0,0,0c0,0.1,0,0.2,0,0.4c0,0.2,0,0.3,0,0.4c0,0,0,0,0,0h-0.5c0,0,0,0,0,0
			c0,0,0,0,0,0c0-0.1,0-0.3,0-0.5c0-0.2,0-0.4,0-0.5c0-0.1,0-0.3,0-0.6c0-0.1,0-0.2,0-0.4v0c0,0,0,0,0.1,0c0,0,0.1,0,0.2,0
			s0.2,0,0.2,0c0,0,0,0,0,0.1l0.4,0.9c0,0.1,0,0.1,0.1,0.1c0,0,0,0,0.1-0.1c0.1-0.2,0.2-0.5,0.4-0.9c0,0,0,0,0,0c0,0,0.1,0,0.1,0
			s0.1,0,0.1,0c0,0,0.1,0,0.1,0s0.1,0,0.1,0c0,0,0,0,0,0c0,0.1,0,0.3,0,0.5c0,0.2,0,0.4,0,0.5c0,0.1,0,0.3,0,0.5
			C22.4,24.7,22.4,24.9,22.4,25z"/>
		<path d="M24.4,24.7C24.4,24.7,24.3,24.7,24.4,24.7c-0.2,0.3-0.4,0.4-0.7,0.4s-0.5-0.1-0.7-0.3c-0.2-0.2-0.3-0.4-0.3-0.8
			c0-0.3,0.1-0.5,0.3-0.7c0.2-0.2,0.4-0.3,0.7-0.3c0.3,0,0.6,0.1,0.7,0.3c0,0,0,0,0,0c0,0,0,0.1-0.1,0.2c-0.1,0.1-0.1,0.2-0.1,0.2
			c0,0,0,0,0,0c0,0,0,0-0.1-0.1c0,0-0.1-0.1-0.1-0.1c-0.1,0-0.1-0.1-0.2-0.1c-0.1,0-0.2,0-0.3,0.2c-0.1,0.1-0.1,0.2-0.1,0.4
			c0,0.1,0,0.3,0.1,0.4c0.1,0.1,0.2,0.2,0.3,0.2c0.1,0,0.2,0,0.2,0c0,0,0.1-0.1,0.1-0.1c0,0,0.1,0,0.1,0c0,0,0,0,0,0
			c0,0,0,0.1,0.1,0.2C24.3,24.6,24.4,24.7,24.4,24.7z"/>
		<path d="M25.5,23.9c0,0,0,0.1,0,0.1c0,0,0,0.1,0,0.1c0,0,0,0.1,0,0.2c0,0,0,0,0,0c0,0-0.1,0-0.2,0s-0.1,0-0.2,0
			c-0.1,0-0.2,0-0.4,0c0,0,0,0-0.1,0c0,0-0.1,0-0.1,0c0,0,0,0,0-0.1c0,0,0-0.1,0-0.2c0-0.1,0-0.2,0.1-0.2c0,0,0,0,0,0
			c0,0,0.1,0,0.2,0s0.1,0,0.2,0c0.1,0,0.2,0,0.4,0C25.4,23.9,25.5,23.9,25.5,23.9C25.5,23.8,25.5,23.9,25.5,23.9z"/>
		<path d="M27.5,24.7C27.5,24.7,27.4,24.7,27.5,24.7c-0.2,0.3-0.4,0.4-0.7,0.4S26.2,25,26,24.7c-0.2-0.2-0.3-0.4-0.3-0.8
			c0-0.3,0.1-0.5,0.3-0.7c0.2-0.2,0.4-0.3,0.7-0.3c0.3,0,0.6,0.1,0.7,0.3c0,0,0,0,0,0c0,0,0,0.1-0.1,0.2c-0.1,0.1-0.1,0.2-0.1,0.2
			c0,0,0,0,0,0c0,0,0,0-0.1-0.1c0,0-0.1-0.1-0.1-0.1c-0.1,0-0.1-0.1-0.2-0.1c-0.1,0-0.2,0-0.3,0.2c-0.1,0.1-0.1,0.2-0.1,0.4
			c0,0.1,0,0.3,0.1,0.4c0.1,0.1,0.2,0.2,0.3,0.2c0.1,0,0.2,0,0.2,0c0,0,0.1-0.1,0.1-0.1c0,0,0.1,0,0.1,0c0,0,0,0,0,0
			c0,0,0,0.1,0.1,0.2C27.4,24.6,27.5,24.7,27.5,24.7z"/>
		<path d="M30.6,25C30.6,25,30.6,25,30.6,25c0,0.1-0.1,0-0.2,0c-0.1,0-0.2,0-0.2,0c0,0,0,0,0-0.1c0,0,0-0.1,0-0.2c0-0.1,0-0.2,0-0.2
			c0,0,0-0.1,0-0.2c0-0.1,0-0.1,0-0.2c0-0.1,0-0.2-0.2-0.2c0,0-0.1,0-0.1,0c0,0-0.1,0.1-0.1,0.1v0.8c0,0,0,0,0,0c0,0-0.1,0-0.2,0
			c-0.1,0-0.2,0-0.2,0c0,0,0,0,0,0c0-0.1,0-0.2,0-0.3c0-0.2,0-0.3,0-0.3c0-0.2,0-0.4,0-0.6c0,0,0,0,0,0c0,0,0,0,0,0
			c0.1,0,0.1,0,0.2,0c0.1,0,0.2,0,0.3,0c0,0,0,0,0,0.1c0,0.1,0,0.1,0,0.1c0,0,0,0,0.1-0.1c0.1-0.1,0.2-0.1,0.3-0.1
			c0.1,0,0.2,0,0.3,0.1c0.1,0.1,0.1,0.2,0.1,0.3v0.5c0,0.1,0,0.2,0,0.3C30.6,24.8,30.6,24.9,30.6,25z"/>
		<path d="M31.8,24.6c0,0,0,0.1,0,0.1c0,0.1,0,0.1,0,0.1c0,0,0,0,0,0c0,0,0,0,0,0C31.6,25,31.5,25,31.3,25c-0.3,0-0.4-0.1-0.4-0.3
			c0-0.1,0-0.2,0-0.3c0-0.1,0-0.2,0-0.3c0,0,0-0.1-0.1-0.1h0c0,0,0,0,0,0c0,0,0,0,0,0c0,0,0,0,0-0.1c0,0,0,0,0-0.1c0,0,0,0,0-0.1
			s0-0.1,0-0.1c0,0,0,0,0.1,0c0,0,0,0,0,0c0,0,0-0.1,0-0.2c0-0.1,0-0.2,0-0.2c0-0.1,0-0.2,0-0.2c0,0,0.1,0,0.1,0c0,0,0.1,0,0.1,0
			c0,0,0.1,0,0.2,0c0,0,0,0,0,0c0,0,0,0.1,0,0.2c0,0.1,0,0.1,0,0.2c0,0,0,0.1,0,0.1c0,0,0.1,0,0.1,0s0.1,0,0.1,0c0,0,0,0,0,0
			c0,0,0,0,0,0.1s0,0.1,0,0.1c0,0,0,0,0,0.1s0,0.1,0,0.1s0,0,0,0c0,0,0,0-0.1,0c0,0-0.1,0-0.1,0h-0.1c0,0,0,0,0,0.1c0,0,0,0,0,0.1
			s0,0.1,0,0.1c0,0.1,0,0.1,0,0.2c0,0,0.1,0.1,0.1,0.1c0,0,0.1,0,0.1,0C31.7,24.5,31.8,24.5,31.8,24.6
			C31.8,24.5,31.8,24.6,31.8,24.6z"/>
		<path d="M32.9,24.1C32.9,24.1,32.9,24.2,32.9,24.1c-0.1,0-0.1,0-0.1,0c0,0-0.1,0-0.1,0c-0.1,0-0.1,0-0.2,0c0,0,0,0.1,0,0.1
			c0,0,0,0.1,0,0.2c0,0.1,0,0.1,0,0.2c0,0,0,0.1,0,0.1s0,0.1,0,0.1c0,0,0,0,0,0c0,0-0.1,0-0.2,0c-0.1,0-0.2,0-0.2,0c0,0,0,0,0,0
			c0-0.1,0-0.2,0-0.3c0-0.1,0-0.3,0-0.3c0-0.2,0-0.4-0.1-0.6c0,0,0,0,0,0c0,0,0,0,0,0c0,0,0.1,0,0.2,0c0.1,0,0.2,0,0.2,0
			c0,0,0,0,0,0.1s0,0.1,0,0.1c0,0,0,0,0.1-0.1c0.1,0,0.2-0.1,0.3-0.1c0,0,0.1,0,0.1,0c0,0,0,0.1,0,0.1c0,0,0,0.1,0,0.1
			c0,0,0,0.1,0,0.1C32.9,24.1,32.9,24.1,32.9,24.1z"/>
		<path d="M34.5,24.3c0,0.2-0.1,0.4-0.2,0.5C34.2,25,34,25,33.8,25c-0.2,0-0.4-0.1-0.5-0.2c-0.1-0.1-0.2-0.3-0.2-0.5
			c0-0.2,0.1-0.4,0.2-0.5c0.1-0.1,0.3-0.2,0.5-0.2c0.2,0,0.4,0.1,0.5,0.2C34.4,23.9,34.5,24.1,34.5,24.3z M34,24.3
			c0-0.1,0-0.1-0.1-0.2c0-0.1-0.1-0.1-0.2-0.1c-0.1,0-0.1,0-0.2,0.1c0,0-0.1,0.1-0.1,0.2c0,0.1,0,0.1,0.1,0.2c0,0.1,0.1,0.1,0.2,0.1
			c0.1,0,0.1,0,0.2-0.1C34,24.4,34,24.4,34,24.3z"/>
		<path d="M35.2,24.1c0,0.3,0,0.5,0,0.6c0,0,0,0.1,0,0.1s0,0.1,0,0.1c0,0,0,0,0,0c0,0-0.1,0-0.2,0c-0.1,0-0.2,0-0.2,0c0,0,0,0,0,0
			c0,0,0,0,0-0.1c0-0.1,0-0.2,0-0.4s0-0.3,0-0.4c0-0.4,0-0.6,0-0.6c0-0.2,0-0.4,0-0.5c0,0,0,0,0,0c0,0,0,0,0,0h0.5c0,0,0,0,0,0v0
			C35.2,23.4,35.2,23.8,35.2,24.1z"/>
		<path class="st2" d="M36,24.1c0,0.3,0,0.5,0,0.6c0,0,0,0.1,0,0.1s0,0.1,0,0.1c0,0,0,0,0,0c0,0-0.1,0-0.2,0c-0.1,0-0.2,0-0.2,0
			c0,0,0,0,0,0c0,0,0,0,0-0.1c0-0.1,0-0.2,0-0.4s0-0.3,0-0.4c0-0.4,0-0.6,0-0.6c0-0.2,0-0.4,0-0.5c0,0,0,0,0,0c0,0,0,0,0,0H36
			c0,0,0,0,0,0v0C36,23.4,36,23.8,36,24.1z"/>
	</g>
	<g id="Layer_3">
		<path class="st2" d="M19.2,23l-0.7,1.2l0.6,0L18.7,25l1.2-1.3l-0.7,0.1l0.7-0.8L19.2,23L19.2,23z"/>
		
			<linearGradient id="SVGID_1_" gradientUnits="userSpaceOnUse" x1="27.1308" y1="56.1258" x2="29.0009" y2="49.9234" gradientTransform="matrix(1 0 0 -1 0 68)">
			<stop  offset="0" style="stop-color:#E5383B"/>
			<stop  offset="2.681428e-02" style="stop-color:#DC3134"/>
			<stop  offset="9.956568e-02" style="stop-color:#C92326"/>
			<stop  offset="0.1745" style="stop-color:#BE1B1E"/>
			<stop  offset="0.2542" style="stop-color:#BA181B"/>
			<stop  offset="0.4832" style="stop-color:#A4161A"/>
			<stop  offset="0.7961" style="stop-color:#660708"/>
			<stop  offset="0.8357" style="stop-color:#4C0506"/>
			<stop  offset="0.9084" style="stop-color:#230203"/>
			<stop  offset="0.9656" style="stop-color:#090101"/>
			<stop  offset="1" style="stop-color:#000000"/>
		</linearGradient>
		<polygon class="st3" points="32.1,15 30.5,16.7 30.3,16.9 30.2,17.1 30.2,17.1 30.1,17.2 30,17.3 29.1,18.3 28.9,18.4 28.9,18.4 
			28.6,18.8 28.4,19 28.3,19 28.2,19.2 26.4,21.2 26.3,21.2 26.2,21.3 26.2,21.3 26.1,21.4 26,21.5 25.8,21.8 25.8,21.8 25.7,21.9 
			25.1,22.6 25.7,21.2 25.8,21.1 25.8,21 25.9,20.9 25.9,20.9 26,20.8 26.3,20.1 26.3,20 27.7,17.3 25.2,17.6 25.1,17.6 24.4,17.6 
			25.4,15.7 25.6,15.4 25.6,15.4 25.8,15.1 25.8,15 26.2,14.3 26.9,13 27,12.8 27,12.8 27,12.7 27.1,12.7 28.2,10.6 31,10.6 
			31.1,10.6 32,10.5 29.3,14.1 29.2,14.1 29,14.4 28.9,14.5 28.9,14.6 28.9,14.6 28.9,14.6 28.8,14.7 28.8,14.8 28.7,14.8 28.6,15 
			28.5,15.1 28.5,15.1 28.5,15.1 28.2,15.4 28.6,15.4 28.6,15.4 28.8,15.4 28.8,15.4 29,15.3 29.1,15.3 30.9,15.1 31.4,15.1 		"/>
	</g>
	<g id="Layer_2_1_">
		<path d="M29.1,25.2l-0.6,0.3c0,0,0,0,0,0.1l0,0.1c0.1,0.2,0.3,0.3,0.5,0.2C29.2,25.7,29.3,25.5,29.1,25.2L29.1,25.2
			C29.2,25.2,29.1,25.2,29.1,25.2z"/>
		<path class="st2" d="M27.9,23.7c-0.4,0.2-0.5,0.6-0.3,1c0.1,0.2,0.3,0.4,0.6,0.4l0.2,0.3c0,0,0,0,0,0s0,0,0,0l0.6-0.3
			c0,0,0,0,0-0.1l-0.2-0.3c0.1-0.2,0.1-0.5,0-0.7C28.7,23.7,28.2,23.5,27.9,23.7z M28.5,24.1c0,0-0.1,0.1-0.1,0.3c0,0,0,0.3-0.1,0.4
			c0,0,0,0,0,0c0,0-0.1,0-0.2,0c-0.1,0-0.1,0-0.2-0.1c0,0-0.1-0.1-0.1-0.2l0,0c0,0,0-0.3,0.3-0.5C28.2,24,28.3,24,28.5,24.1
			C28.5,24,28.5,24,28.5,24.1C28.6,24,28.6,24,28.5,24.1z"/>
		<path class="st2" d="M34.3,26l0.2-0.2l-0.1-0.1l0,0c0,0,0,0,0,0l0.1-0.1c0.1-0.1,0.2-0.1,0.3-0.1c0.1,0,0.1,0,0.2,0.1
			c0-0.1,0.1-0.2,0.3-0.3c0,0,0.1,0,0.1,0c0,0,0.1,0,0.2-0.1c0,0,0-0.1,0-0.1c0,0,0,0,0,0l0,0l0,0c0,0,0,0,0,0c0,0.1,0,0.1,0,0.2
			c-0.1,0.1-0.2,0.1-0.2,0.1c0,0-0.1,0-0.1,0c-0.2,0.1-0.2,0.2-0.2,0.3c0.1,0.1,0.1,0.1,0.1,0.2c0,0.1,0,0.2-0.1,0.3L35,26.2
			c0,0,0,0,0,0l-0.1-0.1l-0.2,0.2c0,0,0,0,0,0c0,0,0,0,0,0l0.2-0.2l-0.2-0.2L34.3,26C34.3,26.1,34.3,26.1,34.3,26
			C34.3,26,34.3,26,34.3,26z"/>
	</g>
</g>
</svg>
