<?xml version="1.0" encoding="utf-8"?>
<!-- Generator: Adobe Illustrator 24.1.0, SVG Export Plug-In . SVG Version: 6.00 Build 0)  -->
<svg version="1.1" id="Layer_1" xmlns="http://www.w3.org/2000/svg" xmlns:xlink="http://www.w3.org/1999/xlink" x="0px" y="0px"
	 viewBox="0 0 40.9 64" style="enable-background:new 0 0 40.9 64;" xml:space="preserve">
<style type="text/css">
	.st0{fill:#FFE66D;}
	.st1{fill:#7083A6;}
	.st2{fill:#D98285;}
</style>
<path class="st0" d="M31,43v5c0,0.6-0.4,1-1,1h-3c0,1.7-1.3,3-3,3l0,0c-1.7,0-3-1.3-3-3h-3c-0.6,0-1-0.4-1-1v-5h1
	c0-3.3-1.3-6.5-3.6-8.9C8.8,28.8,8.5,20,13.9,14.4S28,8.5,33.6,13.8s5.8,14.2,0.5,19.8c-0.1,0.2-0.3,0.3-0.4,0.4
	C31.3,36.4,30,39.6,30,43l0,0H31z"/>
<path class="st1" d="M30,49h-3c0,1.7-1.3,3-3,3l0,0c-1.7,0-3-1.3-3-3h-3c-0.6,0-1-0.4-1-1v-5h14v5C31,48.6,30.6,49,30,49z"/>
<polygon class="st2" points="30,24.2 25.8,23.4 28.3,16 19,26.6 23.2,27.5 20.7,34 "/>
<path d="M39.9,57.4c-1.2-1.8-3.7-2.4-5.5-1.2c-0.5,0.3-0.9,0.7-1.2,1.2L32.8,58c-0.8,1.3-2.2,2-3.7,2c-2.2,0-4.1-1.8-4.1-4.1v-3.1
	c1.4-0.4,2.5-1.5,2.9-2.9H30c1.1,0,2-0.9,2-2v-5c0-0.5-0.4-1-1-1c0.2-2.7,1.4-5.3,3.4-7.2c6-5.8,6.1-15.3,0.4-21.2
	c-3-3.1-7.2-4.8-11.5-4.6C15,9.4,8.6,16.4,9,24.7c0.2,3.9,1.8,7.5,4.6,10.2c1.9,1.9,3.1,4.4,3.3,7.1c-0.5,0-1,0.5-1,1v5
	c0,1.1,0.9,2,2,2h2.1c0.4,1.4,1.5,2.5,2.9,2.9v3.1c0,3.3,2.7,6.1,6.1,6.1c2.2,0,4.2-1.1,5.4-2.9l0.4-0.6c0.6-0.9,1.8-1.2,2.8-0.6
	c0.2,0.2,0.5,0.4,0.6,0.6c0.7,1.1,1.7,2,2.9,2.6v-2.4C40.6,58.3,40.2,57.9,39.9,57.4z M22,49c0-0.5-0.5-1-1-1h-3v-4h12v4h-3
	c-0.5,0-1,0.5-1,1c0,1.1-0.9,2-2,2S22,50.1,22,49z M33,14.6c5.2,5,5.4,13.2,0.5,18.4c-0.1,0.1-0.3,0.3-0.4,0.4
	c-2.4,2.3-3.8,5.4-4,8.6H19c-0.2-3.3-1.6-6.3-3.9-8.6c-5.2-5-5.4-13.2-0.5-18.4C19.5,9.8,27.8,9.6,33,14.6z"/>
<path d="M30.7,23.5c-0.1-0.1-0.3-0.2-0.5-0.3l-3.1-0.6l2.2-6.3c0.2-0.5-0.1-1.1-0.6-1.3c-0.4-0.1-0.8,0-1.1,0.3L18.3,26
	c-0.4,0.4-0.3,1.1,0.1,1.4c0.1,0.1,0.3,0.2,0.5,0.2l3.1,0.6l-2.1,5.4c-0.2,0.5,0.1,1.1,0.6,1.3c0.4,0.2,0.8,0,1.1-0.2l9.3-9.8
	C31.1,24.5,31.1,23.8,30.7,23.5z M23.5,29.6l0.7-1.8c0.2-0.5,0-1.1-0.6-1.3c-0.1,0-0.1,0-0.2-0.1L20.9,26l4.8-5.5L24.8,23
	c-0.2,0.5,0.1,1.1,0.6,1.3c0,0,0.1,0,0.1,0l2.4,0.5L23.5,29.6z"/>
</svg>
