<?xml version="1.0" encoding="utf-8"?>
<!-- Generator: Adobe Illustrator 24.1.0, SVG Export Plug-In . SVG Version: 6.00 Build 0)  -->
<svg version="1.1" id="Layer_1" xmlns="http://www.w3.org/2000/svg" xmlns:xlink="http://www.w3.org/1999/xlink" x="0px" y="0px"
	 viewBox="0 0 15 36" style="enable-background:new 0 0 15 36;" xml:space="preserve">
<style type="text/css">
	.st0{fill:#FBB03B;}
</style>
<path class="st0" d="M14.5,15.2C14.3,15,14.1,15,13.8,15L7,17.1l3.4-16.4C10.5,0.4,10.3,0.1,10,0C9.7-0.1,9.4,0.1,9.3,0.4L0.3,22
	c-0.1,0.3,0,0.7,0.3,0.8c0.1,0.1,0.3,0.1,0.4,0l6.9-2.1L5.6,35.3c0,0.3,0.2,0.6,0.5,0.7c0.3,0,0.5-0.1,0.6-0.4l7.8-19.8
	C14.7,15.6,14.6,15.4,14.5,15.2z"/>
</svg>
