<?xml version="1.0" encoding="utf-8"?>
<!-- Generator: Adobe Illustrator 24.1.0, SVG Export Plug-In . SVG Version: 6.00 Build 0)  -->
<svg version="1.1" id="Layer_1" xmlns="http://www.w3.org/2000/svg" xmlns:xlink="http://www.w3.org/1999/xlink" x="0px" y="0px"
	 viewBox="0 0 32 32" style="enable-background:new 0 0 32 32;" xml:space="preserve">
<style type="text/css">
	.st0{fill:#93061A;}
	.st1{fill:#E5383B;}
	.st2{fill:#EAEAEA;}
</style>
<path class="st0" d="M4.3,6.3c-0.4,0.1-0.8,0.5-0.8,1v8.2c0,7.5,5.2,14,12.5,15.6l0,0h0c7.3-1.6,12.5-8.1,12.5-15.6V7.3
	c0-0.5-0.3-0.9-0.8-1c-2.3-0.4-4.5-1.2-6.6-2.3c-1.4-0.7-2.7-1.6-3.9-2.6c-0.7-0.6-1.7-0.6-2.4,0c-1.2,0.9-2.5,1.7-3.9,2.4
	C8.8,5,6.6,5.8,4.3,6.3z"/>
<path class="st1" d="M7.3,8.6c-0.4,0.1-0.8,0.5-0.8,1v6c0,5.7,3.9,10.6,9.5,11.9l0,0h0c5.6-1.2,9.5-6.2,9.5-11.9v-6
	c0-0.5-0.3-0.9-0.8-1c-1.7-0.3-3.3-0.9-4.8-1.7c-1.2-0.6-2.3-1.3-3.3-2.2c-0.4-0.3-0.9-0.3-1.2,0c-1,0.8-2.1,1.5-3.3,2.1
	C10.6,7.6,8.9,8.2,7.3,8.6z"/>
<path class="st2" d="M16.3,10.4l-5.6,7.4l4.8-0.3l-3.9,5.6l10.3-7.9l-5.6,0.4l5.6-5.1H16.3z"/>
</svg>
